<?xml version="1.0" encoding="UTF-8" standalone="no"?>
<svg
   version="1.1"
   xml:space="preserve"
   width="500px"
   height="500px"
   viewBox="0 0 500 500"
   id="svg51"
   sodipodi:docname="scaffold.svg"
   inkscape:version="1.3.2 (1:1.3.2+202311252150+091e20ef0f)"
   xmlns:inkscape="http://www.inkscape.org/namespaces/inkscape"
   xmlns:sodipodi="http://sodipodi.sourceforge.net/DTD/sodipodi-0.dtd"
   xmlns="http://www.w3.org/2000/svg"
   xmlns:svg="http://www.w3.org/2000/svg"><defs
   id="defs51" /><sodipodi:namedview
   id="namedview51"
   pagecolor="#ffffff"
   bordercolor="#000000"
   borderopacity="0.25"
   inkscape:showpageshadow="2"
   inkscape:pageopacity="0.0"
   inkscape:pagecheckerboard="0"
   inkscape:deskcolor="#d1d1d1"
   inkscape:zoom="2.352"
   inkscape:cx="249.78741"
   inkscape:cy="250"
   inkscape:window-width="2560"
   inkscape:window-height="1376"
   inkscape:window-x="0"
   inkscape:window-y="27"
   inkscape:window-maximized="1"
   inkscape:current-layer="svg51" />
<!-- END OF HEADER -->
<rect
   style="opacity:1.0;fill:#FFFFFF;stroke:none"
   width="500.0"
   height="500.0"
   x="0.0"
   y="0.0"
   id="rect1"> </rect>


















































<g
   id="g51"><path
     class="bond-0 atom-0 atom-1"
     d="M 251.3,133.9 L 239.0,189.9"
     style="fill:none;fill-rule:evenodd;stroke:#000000;stroke-width:2.0px;stroke-linecap:butt;stroke-linejoin:miter;stroke-opacity:1"
     id="path1" /><path
     class="bond-1 atom-1 atom-2"
     d="M 239.0,189.9 L 215.8,197.2"
     style="fill:none;fill-rule:evenodd;stroke:#000000;stroke-width:2.0px;stroke-linecap:butt;stroke-linejoin:miter;stroke-opacity:1"
     id="path2" /><path
     class="bond-1 atom-1 atom-2"
     d="M 215.8,197.2 L 192.5,204.6"
     style="fill:none;fill-rule:evenodd;stroke:#0000FF;stroke-width:2.0px;stroke-linecap:butt;stroke-linejoin:miter;stroke-opacity:1"
     id="path3" /><path
     class="bond-2 atom-2 atom-3"
     d="M 182.3,217.2 L 177.2,240.1"
     style="fill:none;fill-rule:evenodd;stroke:#0000FF;stroke-width:2.0px;stroke-linecap:butt;stroke-linejoin:miter;stroke-opacity:1"
     id="path4" /><path
     class="bond-2 atom-2 atom-3"
     d="M 177.2,240.1 L 172.2,263.1"
     style="fill:none;fill-rule:evenodd;stroke:#000000;stroke-width:2.0px;stroke-linecap:butt;stroke-linejoin:miter;stroke-opacity:1"
     id="path5" /><path
     class="bond-3 atom-3 atom-4"
     d="M 172.2,263.1 L 214.5,301.7"
     style="fill:none;fill-rule:evenodd;stroke:#000000;stroke-width:2.0px;stroke-linecap:butt;stroke-linejoin:miter;stroke-opacity:1"
     id="path6" /><path
     class="bond-4 atom-3 atom-14"
     d="M 172.2,263.1 L 117.6,280.4"
     style="fill:none;fill-rule:evenodd;stroke:#000000;stroke-width:2.0px;stroke-linecap:butt;stroke-linejoin:miter;stroke-opacity:1"
     id="path7" /><path
     class="bond-5 atom-4 atom-5"
     d="M 210.8,298.3 L 205.5,322.5"
     style="fill:none;fill-rule:evenodd;stroke:#000000;stroke-width:2.0px;stroke-linecap:butt;stroke-linejoin:miter;stroke-opacity:1"
     id="path8" /><path
     class="bond-5 atom-4 atom-5"
     d="M 205.5,322.5 L 200.2,346.6"
     style="fill:none;fill-rule:evenodd;stroke:#FF0000;stroke-width:2.0px;stroke-linecap:butt;stroke-linejoin:miter;stroke-opacity:1"
     id="path9" /><path
     class="bond-5 atom-4 atom-5"
     d="M 219.2,300.2 L 213.9,324.3"
     style="fill:none;fill-rule:evenodd;stroke:#000000;stroke-width:2.0px;stroke-linecap:butt;stroke-linejoin:miter;stroke-opacity:1"
     id="path10" /><path
     class="bond-5 atom-4 atom-5"
     d="M 213.9,324.3 L 208.6,348.4"
     style="fill:none;fill-rule:evenodd;stroke:#FF0000;stroke-width:2.0px;stroke-linecap:butt;stroke-linejoin:miter;stroke-opacity:1"
     id="path11" /><path
     class="bond-6 atom-4 atom-6"
     d="M 214.5,301.7 L 237.7,294.3"
     style="fill:none;fill-rule:evenodd;stroke:#000000;stroke-width:2.0px;stroke-linecap:butt;stroke-linejoin:miter;stroke-opacity:1"
     id="path12" /><path
     class="bond-6 atom-4 atom-6"
     d="M 237.7,294.3 L 261.0,286.9"
     style="fill:none;fill-rule:evenodd;stroke:#0000FF;stroke-width:2.0px;stroke-linecap:butt;stroke-linejoin:miter;stroke-opacity:1"
     id="path13" /><path
     class="bond-7 atom-6 atom-7"
     d="M 277.1,291.7 L 294.2,307.3"
     style="fill:none;fill-rule:evenodd;stroke:#0000FF;stroke-width:2.0px;stroke-linecap:butt;stroke-linejoin:miter;stroke-opacity:1"
     id="path14" /><path
     class="bond-7 atom-6 atom-7"
     d="M 294.2,307.3 L 311.3,323.0"
     style="fill:none;fill-rule:evenodd;stroke:#000000;stroke-width:2.0px;stroke-linecap:butt;stroke-linejoin:miter;stroke-opacity:1"
     id="path15" /><path
     class="bond-8 atom-7 atom-8"
     d="M 311.3,323.0 L 365.9,305.6"
     style="fill:none;fill-rule:evenodd;stroke:#000000;stroke-width:2.0px;stroke-linecap:butt;stroke-linejoin:miter;stroke-opacity:1"
     id="path16" /><path
     class="bond-9 atom-8 atom-9"
     d="M 365.9,305.6 L 408.2,344.2"
     style="fill:none;fill-rule:evenodd;stroke:#000000;stroke-width:2.0px;stroke-linecap:butt;stroke-linejoin:miter;stroke-opacity:1"
     id="path17" /><path
     class="bond-9 atom-8 atom-9"
     d="M 375.3,302.6 L 410.3,334.5"
     style="fill:none;fill-rule:evenodd;stroke:#000000;stroke-width:2.0px;stroke-linecap:butt;stroke-linejoin:miter;stroke-opacity:1"
     id="path18" /><path
     class="bond-10 atom-8 atom-13"
     d="M 365.9,305.6 L 378.2,249.7"
     style="fill:none;fill-rule:evenodd;stroke:#000000;stroke-width:2.0px;stroke-linecap:butt;stroke-linejoin:miter;stroke-opacity:1"
     id="path19" /><path
     class="bond-11 atom-9 atom-10"
     d="M 408.2,344.2 L 462.7,326.9"
     style="fill:none;fill-rule:evenodd;stroke:#000000;stroke-width:2.0px;stroke-linecap:butt;stroke-linejoin:miter;stroke-opacity:1"
     id="path20" /><path
     class="bond-12 atom-10 atom-11"
     d="M 462.7,326.9 L 475.0,271.0"
     style="fill:none;fill-rule:evenodd;stroke:#000000;stroke-width:2.0px;stroke-linecap:butt;stroke-linejoin:miter;stroke-opacity:1"
     id="path21" /><path
     class="bond-12 atom-10 atom-11"
     d="M 455.4,320.2 L 465.5,274.0"
     style="fill:none;fill-rule:evenodd;stroke:#000000;stroke-width:2.0px;stroke-linecap:butt;stroke-linejoin:miter;stroke-opacity:1"
     id="path22" /><path
     class="bond-13 atom-11 atom-12"
     d="M 475.0,271.0 L 432.7,232.4"
     style="fill:none;fill-rule:evenodd;stroke:#000000;stroke-width:2.0px;stroke-linecap:butt;stroke-linejoin:miter;stroke-opacity:1"
     id="path23" /><path
     class="bond-14 atom-12 atom-13"
     d="M 432.7,232.4 L 378.2,249.7"
     style="fill:none;fill-rule:evenodd;stroke:#000000;stroke-width:2.0px;stroke-linecap:butt;stroke-linejoin:miter;stroke-opacity:1"
     id="path24" /><path
     class="bond-14 atom-12 atom-13"
     d="M 430.6,242.1 L 385.5,256.4"
     style="fill:none;fill-rule:evenodd;stroke:#000000;stroke-width:2.0px;stroke-linecap:butt;stroke-linejoin:miter;stroke-opacity:1"
     id="path25" /><path
     class="bond-15 atom-14 atom-15"
     d="M 117.6,280.4 L 99.6,334.7"
     style="fill:none;fill-rule:evenodd;stroke:#000000;stroke-width:2.0px;stroke-linecap:butt;stroke-linejoin:miter;stroke-opacity:1"
     id="path26" /><path
     class="bond-15 atom-14 atom-15"
     d="M 107.5,283.6 L 93.4,326.1"
     style="fill:none;fill-rule:evenodd;stroke:#000000;stroke-width:2.0px;stroke-linecap:butt;stroke-linejoin:miter;stroke-opacity:1"
     id="path27" /><path
     class="bond-16 atom-14 atom-18"
     d="M 117.6,280.4 L 99.2,266.9"
     style="fill:none;fill-rule:evenodd;stroke:#000000;stroke-width:2.0px;stroke-linecap:butt;stroke-linejoin:miter;stroke-opacity:1"
     id="path28" /><path
     class="bond-16 atom-14 atom-18"
     d="M 99.2,266.9 L 80.9,253.3"
     style="fill:none;fill-rule:evenodd;stroke:#FF0000;stroke-width:2.0px;stroke-linecap:butt;stroke-linejoin:miter;stroke-opacity:1"
     id="path29" /><path
     class="bond-17 atom-15 atom-16"
     d="M 99.6,334.7 L 42.3,334.4"
     style="fill:none;fill-rule:evenodd;stroke:#000000;stroke-width:2.0px;stroke-linecap:butt;stroke-linejoin:miter;stroke-opacity:1"
     id="path30" /><path
     class="bond-18 atom-16 atom-17"
     d="M 42.3,334.4 L 25.0,279.8"
     style="fill:none;fill-rule:evenodd;stroke:#000000;stroke-width:2.0px;stroke-linecap:butt;stroke-linejoin:miter;stroke-opacity:1"
     id="path31" /><path
     class="bond-18 atom-16 atom-17"
     d="M 48.6,325.8 L 35.1,283.1"
     style="fill:none;fill-rule:evenodd;stroke:#000000;stroke-width:2.0px;stroke-linecap:butt;stroke-linejoin:miter;stroke-opacity:1"
     id="path32" /><path
     class="bond-19 atom-17 atom-18"
     d="M 25.0,279.8 L 43.6,266.5"
     style="fill:none;fill-rule:evenodd;stroke:#000000;stroke-width:2.0px;stroke-linecap:butt;stroke-linejoin:miter;stroke-opacity:1"
     id="path33" /><path
     class="bond-19 atom-17 atom-18"
     d="M 43.6,266.5 L 62.2,253.1"
     style="fill:none;fill-rule:evenodd;stroke:#FF0000;stroke-width:2.0px;stroke-linecap:butt;stroke-linejoin:miter;stroke-opacity:1"
     id="path34" /><path
     d="M 239.6,187.1 L 239.0,189.9 L 237.9,190.2"
     style="fill:none;stroke:#000000;stroke-width:2.0px;stroke-linecap:butt;stroke-linejoin:miter;stroke-opacity:1;"
     id="path35" /><path
     d="M 212.4,299.8 L 214.5,301.7 L 215.6,301.3"
     style="fill:none;stroke:#000000;stroke-width:2.0px;stroke-linecap:butt;stroke-linejoin:miter;stroke-opacity:1;"
     id="path36" /><path
     d="M 310.5,322.2 L 311.3,323.0 L 314.0,322.1"
     style="fill:none;stroke:#000000;stroke-width:2.0px;stroke-linecap:butt;stroke-linejoin:miter;stroke-opacity:1;"
     id="path37" /><path
     d="M 406.0,342.3 L 408.2,344.2 L 410.9,343.4"
     style="fill:none;stroke:#000000;stroke-width:2.0px;stroke-linecap:butt;stroke-linejoin:miter;stroke-opacity:1;"
     id="path38" /><path
     d="M 460.0,327.8 L 462.7,326.9 L 463.3,324.1"
     style="fill:none;stroke:#000000;stroke-width:2.0px;stroke-linecap:butt;stroke-linejoin:miter;stroke-opacity:1;"
     id="path39" /><path
     d="M 474.4,273.8 L 475.0,271.0 L 472.9,269.1"
     style="fill:none;stroke:#000000;stroke-width:2.0px;stroke-linecap:butt;stroke-linejoin:miter;stroke-opacity:1;"
     id="path40" /><path
     d="M 434.8,234.3 L 432.7,232.4 L 430.0,233.3"
     style="fill:none;stroke:#000000;stroke-width:2.0px;stroke-linecap:butt;stroke-linejoin:miter;stroke-opacity:1;"
     id="path41" /><path
     d="M 377.5,252.5 L 378.2,249.7 L 380.9,248.9"
     style="fill:none;stroke:#000000;stroke-width:2.0px;stroke-linecap:butt;stroke-linejoin:miter;stroke-opacity:1;"
     id="path42" /><path
     d="M 100.5,332.0 L 99.6,334.7 L 96.7,334.7"
     style="fill:none;stroke:#000000;stroke-width:2.0px;stroke-linecap:butt;stroke-linejoin:miter;stroke-opacity:1;"
     id="path43" /><path
     d="M 45.2,334.4 L 42.3,334.4 L 41.5,331.6"
     style="fill:none;stroke:#000000;stroke-width:2.0px;stroke-linecap:butt;stroke-linejoin:miter;stroke-opacity:1;"
     id="path44" /><path
     d="M 25.9,282.5 L 25.0,279.8 L 25.9,279.1"
     style="fill:none;stroke:#000000;stroke-width:2.0px;stroke-linecap:butt;stroke-linejoin:miter;stroke-opacity:1;"
     id="path45" /><path
     class="atom-2"
     d="M 162.4 199.1 L 164.6 199.1 L 164.6 206.0 L 172.9 206.0 L 172.9 199.1 L 175.1 199.1 L 175.1 215.3 L 172.9 215.3 L 172.9 207.8 L 164.6 207.8 L 164.6 215.3 L 162.4 215.3 L 162.4 199.1 "
     fill="#0000FF"
     id="path46" /><path
     class="atom-2"
     d="M 180.9 199.1 L 186.2 207.7 Q 186.7 208.5, 187.6 210.0 Q 188.4 211.6, 188.5 211.7 L 188.5 199.1 L 190.6 199.1 L 190.6 215.3 L 188.4 215.3 L 182.7 205.9 Q 182.0 204.8, 181.3 203.5 Q 180.6 202.3, 180.4 201.9 L 180.4 215.3 L 178.3 215.3 L 178.3 199.1 L 180.9 199.1 "
     fill="#0000FF"
     id="path47" /><path
     class="atom-5"
     d="M 194.7 357.6 Q 194.7 353.8, 196.7 351.6 Q 198.6 349.4, 202.2 349.4 Q 205.8 349.4, 207.7 351.6 Q 209.6 353.8, 209.6 357.6 Q 209.6 361.6, 207.7 363.8 Q 205.7 366.1, 202.2 366.1 Q 198.6 366.1, 196.7 363.8 Q 194.7 361.6, 194.7 357.6 M 202.2 364.2 Q 204.7 364.2, 206.0 362.6 Q 207.3 360.9, 207.3 357.6 Q 207.3 354.5, 206.0 352.9 Q 204.7 351.2, 202.2 351.2 Q 199.7 351.2, 198.4 352.8 Q 197.0 354.4, 197.0 357.6 Q 197.0 360.9, 198.4 362.6 Q 199.7 364.2, 202.2 364.2 "
     fill="#FF0000"
     id="path48" /><path
     class="atom-6"
     d="M 265.4 276.3 L 270.8 284.8 Q 271.3 285.7, 272.1 287.2 Q 273.0 288.8, 273.0 288.9 L 273.0 276.3 L 275.2 276.3 L 275.2 292.5 L 273.0 292.5 L 267.3 283.1 Q 266.6 282.0, 265.9 280.7 Q 265.2 279.5, 265.0 279.1 L 265.0 292.5 L 262.9 292.5 L 262.9 276.3 L 265.4 276.3 "
     fill="#0000FF"
     id="path49" /><path
     class="atom-6"
     d="M 262.7 258.4 L 264.9 258.4 L 264.9 265.3 L 273.2 265.3 L 273.2 258.4 L 275.4 258.4 L 275.4 274.6 L 273.2 274.6 L 273.2 267.2 L 264.9 267.2 L 264.9 274.6 L 262.7 274.6 L 262.7 258.4 "
     fill="#0000FF"
     id="path50" /><path
     class="atom-18"
     d="M 64.1 246.5 Q 64.1 242.6, 66.0 240.4 Q 67.9 238.3, 71.5 238.3 Q 75.1 238.3, 77.1 240.4 Q 79.0 242.6, 79.0 246.5 Q 79.0 250.4, 77.0 252.7 Q 75.1 254.9, 71.5 254.9 Q 68.0 254.9, 66.0 252.7 Q 64.1 250.5, 64.1 246.5 M 71.5 253.1 Q 74.0 253.1, 75.3 251.4 Q 76.7 249.8, 76.7 246.5 Q 76.7 243.3, 75.3 241.7 Q 74.0 240.1, 71.5 240.1 Q 69.1 240.1, 67.7 241.7 Q 66.4 243.3, 66.4 246.5 Q 66.4 249.8, 67.7 251.4 Q 69.1 253.1, 71.5 253.1 "
     fill="#FF0000"
     id="path51" /></g>
</svg>
